<svg xmlns="http://www.w3.org/2000/svg" width="16" height="16" viewBox="0 0 16 16">
  <defs>
    <linearGradient id="white-purple-gradient" x1="0%" y1="0%" x2="100%" y2="100%">
      <stop offset="0%" style="stop-color:white;stop-opacity:1" />
      <stop offset="100%" style="stop-color:purple;stop-opacity:1" />
    </linearGradient>
  </defs>
  <path fill="url(#white-purple-gradient)" d="M13.5 3a.5.5 0 0 1 .5.5V11H2V3.5a.5.5 0 0 1 .5-.5zm-11-1A1.5 1.5 0 0 0 1 3.5V12h14V3.5A1.5 1.5 0 0 0 13.5 2zM0 12.5h16a1.5 1.5 0 0 1-1.5 1.5h-13A1.5 1.5 0 0 1 0 12.5"/>
</svg>