<svg xmlns="http://www.w3.org/2000/svg" width="16" height="16" viewBox="0 0 16 16">
  <defs>
    <linearGradient id="white-purple-gradient" x1="0%" y1="0%" x2="100%" y2="100%">
      <stop offset="0%" style="stop-color:white;stop-opacity:1" />
      <stop offset="100%" style="stop-color:purple;stop-opacity:1" />
    </linearGradient>
  </defs>
  <path fill="url(#white-purple-gradient)" d="M8 1a1 1 0 0 1 1-1h6a1 1 0 0 1 1 1v14a1 1 0 0 1-1 1H9a1 1 0 0 1-1-1zm1 13.5a.5.5 0 1 0 1 0 .5.5 0 0 0-1 0m2 0a.5.5 0 1 0 1 0 .5.5 0 0 0-1 0M9.5 1a.5.5 0 0 0 0 1h5a.5.5 0 0 0 0-1zM9 3.5a.5.5 0 0 0 .5.5h5a.5.5 0 0 0 0-1h-5a.5.5 0 0 0-.5.5M1.5 2A1.5 1.5 0 0 0 0 3.5v7A1.5 1.5 0 0 0 1.5 12H6v2h-.5a.5.5 0 0 0 0 1H7v-4H1.5a.5.5 0 0 1-.5-.5v-7a.5.5 0 0 1 .5-.5H7V2z"/>
</svg>